# xmcd
#
# Track frame offsets: 
#        150
#        4702
#        18557
#        34526
#        56075
#        73805
#        87897
#        102537
#        113838
#        130784
#        142561
#        156589
#        170828
#        186712
#
# Disc length: 2618 seconds
#
# Revision: 0
# Processed by: cddbd v1.5.2PL0 Copyright (c) Steve Scherf et al.
# Submitted via: ExactAudioCopy v0.99pb5
#
DISCID=c40a380e
DTITLE=Hannes H. - Ei Turhia Paineita
DYEAR=2010
DGENRE=Hip-Hop
TTITLE0=Alkusoitto
TTITLE1=Ei turhia paineita
TTITLE2=M‰ Vihaan mun pomoo
TTITLE3=Kev‰t (feat. Jussi Kuoma and Are)
TTITLE4=Tsekkaa sun mikkis (feat. Rekku and Jani Laguuni)
TTITLE5=Leuka Rintaan
TTITLE6=Tuntenut satoja, rakastanut muutamii (feat. W. Kempton)
TTITLE7=Mik‰ on kun ei taidot riit‰ (feat. Eino Antiw‰kki)
TTITLE8=PMP (feat. W. Kempton)
TTITLE9=Kes‰ Californian (feat. Rakki)
TTITLE10=Kahen Vaiheil (feat. W. Kempton)
TTITLE11=Mun syd‰n sykkii
TTITLE12=Onks t‰‰ sit‰ el‰m‰‰ (remix)
TTITLE13=Rukoile Mulle
EXTD=
EXTT0=
EXTT1=
EXTT2=
EXTT3=
EXTT4=
EXTT5=
EXTT6=
EXTT7=
EXTT8=
EXTT9=
EXTT10=
EXTT11=
EXTT12=
EXTT13=
PLAYORDER=
